<?xml version="1.0" encoding="iso-8859-1"?>
<!-- Generator: Adobe Illustrator 19.0.0, SVG Export Plug-In . SVG Version: 6.00 Build 0)  -->
<svg version="1.1" id="Capa_1" xmlns="http://www.w3.org/2000/svg" xmlns:xlink="http://www.w3.org/1999/xlink" x="0px" y="0px"
	 viewBox="0 0 496 496" style="enable-background:new 0 0 496 496;" xml:space="preserve">
<g>
	<path style="fill:#F0BC5E;" d="M168.4,199.992H168V208c-8.064,0-15.344-3.088-20.976-8.008h-3.152V200
		c-4.232,4.976-9.784,8-15.872,8c-1.976,0-3.864-0.408-5.704-1.008c-6.656,12.6-10.296,26.656-10.296,41
		c0,27.152,12.192,52.064,33.384,68.88L208,296v-34.792C186.288,248.632,171.008,226.208,168.4,199.992z"/>
	<path style="fill:#F0BC5E;" d="M368,208c-6.088,0-11.64-3.024-15.872-8l0,0h-3.16c-5.624,4.92-12.904,8-20.968,8v-8h-0.4
		c-2.6,26.208-17.888,48.632-39.6,61.208V296l62.616,20.872C371.816,300.056,384,275.136,384,248c0-14.344-3.64-28.4-10.304-41.008
		C371.864,207.592,369.976,208,368,208z"/>
	<path style="fill:#F0BC5E;" d="M147.04,152c5.624-4.92,12.904-8,20.96-8v-16c0,0,14.72-24.528,48-35.176h0.488
		C216.248,91.24,216,89.656,216,88V4.464C165.336,18.52,128,64.92,128,120v24c6.088,0,11.64,3.024,15.872,8H147.04z"/>
	<path style="fill:#F0BC5E;" d="M328,128v16c8.064,0,15.336,3.08,20.96,8h3.16c4.232-4.976,9.792-8,15.872-8v-24
		c0-55.08-37.336-101.48-88-115.536V88c0,1.656-0.248,3.24-0.488,4.824H280C313.28,103.472,328,128,328,128z"/>
</g>
<circle cx="288" cy="168" r="8"/>
<circle cx="208" cy="168" r="8"/>
<path d="M280,208h-16c0,8.824-7.176,16-16,16s-16-7.176-16-16h-16c0,17.648,14.352,32,32,32S280,225.648,280,208z"/>
<rect x="240" width="16" height="80"/>
<path d="M332.712,215.52c6.4-0.76,12.384-2.864,17.496-6.288C355.424,213.592,361.56,216,368,216c15.456,0,28.376-13.768,31.352-32
	H416v-16h-16.648c-2.976-18.232-15.896-32-31.352-32c-6.44,0-12.576,2.408-17.792,6.76c-4.24-2.84-9.04-4.904-14.208-5.952v-11.024
	l-1.144-1.904c-0.632-1.048-15.032-24.488-46.856-36.696V0h-16v88c0,10.416-6.712,19.216-16,22.528V96h-16v14.528
	c-9.288-3.312-16-12.112-16-22.528V0h-16v87.192c-31.832,12.2-46.232,35.648-46.856,36.696L160,125.784v11.024
	c-5.168,1.056-9.968,3.112-14.208,5.952C140.576,138.408,134.44,136,128,136c-15.456,0-28.376,13.768-31.352,32H80v16h16.648
	c2.976,18.232,15.896,32,31.352,32c6.44,0,12.576-2.408,17.792-6.76c5.112,3.424,11.096,5.52,17.496,6.288
	c5.792,20.84,19.032,38.576,36.712,50.136v24.576l-81.704,27.24C95.384,325.104,80,346.456,80,370.592V496h336V370.592
	c0-24.144-15.384-45.496-38.288-53.12L296,290.232v-24.576C313.68,254.096,326.912,236.36,332.712,215.52z M368,200
	c-2.584,0-4.736-0.984-6.52-2.24c2.696-4.136,4.696-8.76,5.712-13.76h15.792C380.72,193.2,374.808,200,368,200z M382.984,168
	h-15.792c-1.016-4.992-3.016-9.624-5.712-13.76c1.784-1.256,3.936-2.24,6.52-2.24C374.808,152,380.72,158.8,382.984,168z M352,176
	c0,10.536-6.872,19.416-16.336,22.632c0.168-2.2,0.336-4.392,0.336-6.632v-38.528C345.288,156.784,352,165.584,352,176z M128,152
	c2.584,0,4.736,0.984,6.52,2.24c-2.696,4.136-4.696,8.76-5.712,13.76h-15.792C115.28,158.8,121.192,152,128,152z M113.016,184
	h15.792c1.016,4.992,3.016,9.624,5.712,13.76c-1.784,1.256-3.936,2.24-6.52,2.24C121.192,200,115.28,193.2,113.016,184z M144,176
	c0-10.416,6.712-19.216,16-22.528V192c0,2.24,0.168,4.432,0.336,6.632C150.872,195.416,144,186.536,144,176z M176,192v-61.576
	c3.416-4.784,14.664-18.568,35.056-27.168c5.024,12.12,15.808,21.256,28.944,23.936V144h16v-16.808
	c13.128-2.68,23.92-11.816,28.944-23.936c20.232,8.576,31.616,22.424,35.056,27.192V192c0,39.696-32.304,72-72,72
	S176,231.696,176,192z M400,370.592V480h-56v-12.688l7.512-7.512C362.144,449.168,368,435.032,368,420s-5.856-29.168-16.488-39.8
	c-4.776-4.768-7.512-11.384-7.512-18.136V352h-16v10.064c0,11.128,4.336,21.584,12.2,29.456c7.608,7.608,11.8,17.72,11.8,28.48
	s-4.192,20.872-11.8,28.488l-12.2,12.2V480h-56v-24h-16v24h-16v-24h-16v24h-56v-19.312l-12.2-12.2
	C148.192,440.872,144,430.76,144,420s4.192-20.872,11.8-28.488c7.864-7.864,12.2-18.328,12.2-29.448V352h-16v10.064
	c0,6.752-2.736,13.368-7.512,18.144C133.856,390.832,128,404.968,128,420s5.856,29.168,16.488,39.8l7.512,7.512V480H96V370.592
	c0-17.24,10.992-32.496,27.352-37.944l49.488-16.496l51.904,111.232l14.496-6.768l-51.128-109.56l15.48-5.16l53.08,121.304L264,424
	l7.248,3.384l51.912-111.232l49.496,16.496C389.008,338.104,400,353.352,400,370.592z M307.88,311.056l-43.648,93.52l-7.504-17.152
	l35.672-81.528L307.88,311.056z M280,294.336l-32,73.144l-32-73.144v-20.448c9.936,3.896,20.704,6.112,32,6.112
	c11.296,0,22.064-2.216,32-6.112V294.336z"/>
<path style="fill:#F0BC5E;" d="M288,464h-80v-48h80V464z"/>
<g>
</g>
<g>
</g>
<g>
</g>
<g>
</g>
<g>
</g>
<g>
</g>
<g>
</g>
<g>
</g>
<g>
</g>
<g>
</g>
<g>
</g>
<g>
</g>
<g>
</g>
<g>
</g>
<g>
</g>
</svg>
