<svg width="410" height="410" viewBox="0 0 410 410" fill="none" xmlns="http://www.w3.org/2000/svg">
<g clip-path="url(#clip0)">
<path d="M115.9 126.2C115.9 141.6 111.8 154.7 103.6 165.5C95.4 176.1 82.3 181.4 64.3 181.4C46.3 181.4 33 176.3 24.4 166.1C15.8 155.9 11.5 143.6 11.5 129.2C11.5 106.4 21.8 88.5 42.4 75.5C63.2 62.5 96.3 56 141.7 56H169.3V92H157.3L179.8 141.8L202.3 92H190.3V56H265.9V92H244.9L199.3 184.1V230H228.4V266H131.2V230H160.3V184.1L115 92.6C90.6 94 73.5 97.5 63.7 103.1C53.9 108.7 49 117.2 49 128.6C49 139.8 54.1 145.4 64.3 145.4C73.7 145.4 78.4 139 78.4 126.2H115.9Z" fill="black"/>
<path d="M366.3 170C387.3 183 397.8 198.2 397.8 215.6C397.8 233 390.4 246.2 375.6 255.2C361 264 340.7 268.4 314.7 268.4C288.7 268.4 266.3 263.3 247.5 253.1V199.1H282V226.4C293.4 230.4 305.2 232.4 317.4 232.4C329.8 232.4 339.8 231 347.4 228.2C355.2 225.2 359.1 221.3 359.1 216.5C359.1 213.5 358.1 211 356.1 209C354.1 206.8 350.1 203.9 344.1 200.3L292.2 170C272 156.6 259.4 143.4 254.4 130.4C251.6 123.4 250.2 115.9 250.2 107.9C250.2 90.1 257.3 76.2 271.5 66.2C285.7 56 303.3 50.9 324.3 50.9C345.3 50.9 362.7 55.7 376.5 65.3C390.5 74.7 397.5 86.9 397.5 101.9C397.5 117.5 392.9 128.9 383.7 136.1C375.3 142.7 362.8 146 346.2 146V111.5C351 111.5 354.2 110.9 355.8 109.7C357.6 108.3 358.5 105.9 358.5 102.5C358.5 99.1 355.7 95.7 350.1 92.3C344.7 88.7 336.6 86.9 325.8 86.9C315 86.9 306.2 88.6 299.4 92C292.6 95.2 289.2 100 289.2 106.4C289.2 112.8 290.6 118.1 293.4 122.3C296.4 126.3 301.5 130.5 308.7 134.9L366.3 170Z" fill="#0095A8"/>
<path d="M44.92 310.4L56.68 331.76L68.56 310.4H75.94L60.04 337.76V353H53.32V337.64L37.54 310.4H44.92ZM110.454 347.06V353H81.2336V310.4H109.914V316.34H87.9536V328.46H106.974V334.04H87.9536V347.06H110.454ZM141.707 320.42C141.307 319.98 140.727 319.52 139.967 319.04C139.207 318.52 138.307 318.04 137.267 317.6C136.267 317.16 135.147 316.8 133.907 316.52C132.707 316.24 131.467 316.1 130.187 316.1C127.347 316.1 125.247 316.62 123.887 317.66C122.567 318.7 121.907 320.14 121.907 321.98C121.907 323.02 122.107 323.88 122.507 324.56C122.947 325.2 123.607 325.78 124.487 326.3C125.367 326.78 126.467 327.22 127.787 327.62C129.107 327.98 130.647 328.38 132.407 328.82C134.567 329.34 136.507 329.92 138.227 330.56C139.987 331.2 141.467 331.98 142.667 332.9C143.867 333.82 144.787 334.96 145.427 336.32C146.107 337.64 146.447 339.26 146.447 341.18C146.447 343.34 146.027 345.2 145.187 346.76C144.387 348.32 143.267 349.6 141.827 350.6C140.427 351.56 138.787 352.28 136.907 352.76C135.027 353.2 133.007 353.42 130.847 353.42C127.607 353.42 124.467 352.94 121.427 351.98C118.427 350.98 115.707 349.54 113.267 347.66L116.327 341.9C116.847 342.42 117.587 343 118.547 343.64C119.547 344.28 120.687 344.88 121.967 345.44C123.287 345.96 124.707 346.42 126.227 346.82C127.747 347.18 129.327 347.36 130.967 347.36C133.607 347.36 135.647 346.9 137.087 345.98C138.527 345.06 139.247 343.7 139.247 341.9C139.247 340.82 138.967 339.92 138.407 339.2C137.887 338.48 137.127 337.86 136.127 337.34C135.127 336.78 133.907 336.28 132.467 335.84C131.027 335.4 129.387 334.94 127.547 334.46C125.427 333.9 123.567 333.32 121.967 332.72C120.407 332.08 119.107 331.32 118.067 330.44C117.027 329.56 116.227 328.54 115.667 327.38C115.147 326.18 114.887 324.74 114.887 323.06C114.887 320.98 115.287 319.14 116.087 317.54C116.887 315.9 117.967 314.54 119.327 313.46C120.727 312.34 122.367 311.5 124.247 310.94C126.127 310.38 128.167 310.1 130.367 310.1C133.247 310.1 135.907 310.56 138.347 311.48C140.787 312.4 142.927 313.54 144.767 314.9L141.707 320.42ZM182.407 347.06V353H153.187V310.4H181.867V316.34H159.907V328.46H178.927V334.04H159.907V347.06H182.407ZM207.099 347.24C209.339 347.24 211.199 346.8 212.679 345.92C214.159 345.04 215.339 343.9 216.219 342.5C217.139 341.06 217.779 339.44 218.139 337.64C218.539 335.8 218.739 333.92 218.739 332V310.4H225.519V332C225.519 334.92 225.179 337.68 224.499 340.28C223.819 342.84 222.739 345.1 221.259 347.06C219.779 348.98 217.859 350.5 215.499 351.62C213.179 352.74 210.379 353.3 207.099 353.3C203.699 353.3 200.819 352.72 198.459 351.56C196.139 350.36 194.259 348.78 192.819 346.82C191.379 344.82 190.339 342.54 189.699 339.98C189.059 337.42 188.739 334.76 188.739 332V310.4H195.459V332C195.459 333.96 195.639 335.86 195.999 337.7C196.399 339.5 197.039 341.12 197.919 342.56C198.839 343.96 200.039 345.1 201.519 345.98C203.039 346.82 204.899 347.24 207.099 347.24ZM234.456 353V310.4H241.176V347.06H264.036V353H234.456ZM307.879 320.42C307.479 319.98 306.899 319.52 306.139 319.04C305.379 318.52 304.479 318.04 303.439 317.6C302.439 317.16 301.319 316.8 300.079 316.52C298.879 316.24 297.639 316.1 296.359 316.1C293.519 316.1 291.419 316.62 290.059 317.66C288.739 318.7 288.079 320.14 288.079 321.98C288.079 323.02 288.279 323.88 288.679 324.56C289.119 325.2 289.779 325.78 290.659 326.3C291.539 326.78 292.639 327.22 293.959 327.62C295.279 327.98 296.819 328.38 298.579 328.82C300.739 329.34 302.679 329.92 304.399 330.56C306.159 331.2 307.639 331.98 308.839 332.9C310.039 333.82 310.959 334.96 311.599 336.32C312.279 337.64 312.619 339.26 312.619 341.18C312.619 343.34 312.199 345.2 311.359 346.76C310.559 348.32 309.439 349.6 307.999 350.6C306.599 351.56 304.959 352.28 303.079 352.76C301.199 353.2 299.179 353.42 297.019 353.42C293.779 353.42 290.639 352.94 287.599 351.98C284.599 350.98 281.879 349.54 279.439 347.66L282.499 341.9C283.019 342.42 283.759 343 284.719 343.64C285.719 344.28 286.859 344.88 288.139 345.44C289.459 345.96 290.879 346.42 292.399 346.82C293.919 347.18 295.499 347.36 297.139 347.36C299.779 347.36 301.819 346.9 303.259 345.98C304.699 345.06 305.419 343.7 305.419 341.9C305.419 340.82 305.139 339.92 304.579 339.2C304.059 338.48 303.299 337.86 302.299 337.34C301.299 336.78 300.079 336.28 298.639 335.84C297.199 335.4 295.559 334.94 293.719 334.46C291.599 333.9 289.739 333.32 288.139 332.72C286.579 332.08 285.279 331.32 284.239 330.44C283.199 329.56 282.399 328.54 281.839 327.38C281.319 326.18 281.059 324.74 281.059 323.06C281.059 320.98 281.459 319.14 282.259 317.54C283.059 315.9 284.139 314.54 285.499 313.46C286.899 312.34 288.539 311.5 290.419 310.94C292.299 310.38 294.339 310.1 296.539 310.1C299.419 310.1 302.079 310.56 304.519 311.48C306.959 312.4 309.099 313.54 310.939 314.9L307.879 320.42ZM348.579 347.06V353H319.359V310.4H348.039V316.34H326.079V328.46H345.099V334.04H326.079V347.06H348.579ZM372.332 353.3C369.292 353.3 366.512 352.7 363.992 351.5C361.512 350.26 359.372 348.64 357.572 346.64C355.772 344.6 354.372 342.28 353.372 339.68C352.412 337.08 351.932 334.42 351.932 331.7C351.932 328.86 352.452 326.14 353.492 323.54C354.532 320.94 355.952 318.64 357.752 316.64C359.592 314.64 361.752 313.06 364.232 311.9C366.752 310.7 369.492 310.1 372.452 310.1C375.492 310.1 378.252 310.74 380.732 312.02C383.252 313.26 385.392 314.9 387.152 316.94C388.952 318.98 390.332 321.3 391.292 323.9C392.292 326.46 392.792 329.08 392.792 331.76C392.792 334.6 392.272 337.32 391.232 339.92C390.232 342.52 388.812 344.82 386.972 346.82C385.132 348.78 382.952 350.36 380.432 351.56C377.952 352.72 375.252 353.3 372.332 353.3ZM358.772 331.7C358.772 333.7 359.092 335.64 359.732 337.52C360.372 339.4 361.272 341.06 362.432 342.5C363.632 343.94 365.072 345.1 366.752 345.98C368.432 346.82 370.312 347.24 372.392 347.24C374.552 347.24 376.452 346.8 378.092 345.92C379.772 345 381.192 343.8 382.352 342.32C383.512 340.84 384.392 339.18 384.992 337.34C385.592 335.5 385.892 333.62 385.892 331.7C385.892 329.66 385.572 327.72 384.932 325.88C384.292 324 383.372 322.36 382.172 320.96C381.012 319.52 379.592 318.38 377.912 317.54C376.272 316.66 374.432 316.22 372.392 316.22C370.232 316.22 368.312 316.68 366.632 317.6C364.952 318.48 363.532 319.64 362.372 321.08C361.212 322.52 360.312 324.18 359.672 326.06C359.072 327.9 358.772 329.78 358.772 331.7Z" fill="black"/>
</g>
<defs>
<clipPath id="clip0">
<rect width="410" height="410" fill="white"/>
</clipPath>
</defs>
</svg>
