<svg width="410" height="410" viewBox="0 0 410 410" fill="none" xmlns="http://www.w3.org/2000/svg">
<g clip-path="url(#clip0)">
<path d="M114.9 125.2C114.9 140.6 110.8 153.7 102.6 164.5C94.4 175.1 81.3 180.4 63.3 180.4C45.3 180.4 32 175.3 23.4 165.1C14.8 154.9 10.5 142.6 10.5 128.2C10.5 105.4 20.8 87.5 41.4 74.5C62.2 61.5 95.3 55 140.7 55H168.3V91H156.3L178.8 140.8L201.3 91H189.3V55H264.9V91H243.9L198.3 183.1V229H227.4V265H130.2V229H159.3V183.1L114 91.6C89.6 93 72.5 96.5 62.7 102.1C52.9 107.7 48 116.2 48 127.6C48 138.8 53.1 144.4 63.3 144.4C72.7 144.4 77.4 138 77.4 125.2H114.9Z" fill="white"/>
<path d="M365.3 169C386.3 182 396.8 197.2 396.8 214.6C396.8 232 389.4 245.2 374.6 254.2C360 263 339.7 267.4 313.7 267.4C287.7 267.4 265.3 262.3 246.5 252.1V198.1H281V225.4C292.4 229.4 304.2 231.4 316.4 231.4C328.8 231.4 338.8 230 346.4 227.2C354.2 224.2 358.1 220.3 358.1 215.5C358.1 212.5 357.1 210 355.1 208C353.1 205.8 349.1 202.9 343.1 199.3L291.2 169C271 155.6 258.4 142.4 253.4 129.4C250.6 122.4 249.2 114.9 249.2 106.9C249.2 89.1 256.3 75.2 270.5 65.2C284.7 55 302.3 49.9 323.3 49.9C344.3 49.9 361.7 54.7 375.5 64.3C389.5 73.7 396.5 85.9 396.5 100.9C396.5 116.5 391.9 127.9 382.7 135.1C374.3 141.7 361.8 145 345.2 145V110.5C350 110.5 353.2 109.9 354.8 108.7C356.6 107.3 357.5 104.9 357.5 101.5C357.5 98.1 354.7 94.7 349.1 91.3C343.7 87.7 335.6 85.9 324.8 85.9C314 85.9 305.2 87.6 298.4 91C291.6 94.2 288.2 99 288.2 105.4C288.2 111.8 289.6 117.1 292.4 121.3C295.4 125.3 300.5 129.5 307.7 133.9L365.3 169Z" fill="#AFEEEE"/>
<path d="M43.92 307.4L55.68 328.76L67.56 307.4H74.94L59.04 334.76V350H52.32V334.64L36.54 307.4H43.92ZM109.454 344.06V350H80.2336V307.4H108.914V313.34H86.9536V325.46H105.974V331.04H86.9536V344.06H109.454ZM140.707 317.42C140.307 316.98 139.727 316.52 138.967 316.04C138.207 315.52 137.307 315.04 136.267 314.6C135.267 314.16 134.147 313.8 132.907 313.52C131.707 313.24 130.467 313.1 129.187 313.1C126.347 313.1 124.247 313.62 122.887 314.66C121.567 315.7 120.907 317.14 120.907 318.98C120.907 320.02 121.107 320.88 121.507 321.56C121.947 322.2 122.607 322.78 123.487 323.3C124.367 323.78 125.467 324.22 126.787 324.62C128.107 324.98 129.647 325.38 131.407 325.82C133.567 326.34 135.507 326.92 137.227 327.56C138.987 328.2 140.467 328.98 141.667 329.9C142.867 330.82 143.787 331.96 144.427 333.32C145.107 334.64 145.447 336.26 145.447 338.18C145.447 340.34 145.027 342.2 144.187 343.76C143.387 345.32 142.267 346.6 140.827 347.6C139.427 348.56 137.787 349.28 135.907 349.76C134.027 350.2 132.007 350.42 129.847 350.42C126.607 350.42 123.467 349.94 120.427 348.98C117.427 347.98 114.707 346.54 112.267 344.66L115.327 338.9C115.847 339.42 116.587 340 117.547 340.64C118.547 341.28 119.687 341.88 120.967 342.44C122.287 342.96 123.707 343.42 125.227 343.82C126.747 344.18 128.327 344.36 129.967 344.36C132.607 344.36 134.647 343.9 136.087 342.98C137.527 342.06 138.247 340.7 138.247 338.9C138.247 337.82 137.967 336.92 137.407 336.2C136.887 335.48 136.127 334.86 135.127 334.34C134.127 333.78 132.907 333.28 131.467 332.84C130.027 332.4 128.387 331.94 126.547 331.46C124.427 330.9 122.567 330.32 120.967 329.72C119.407 329.08 118.107 328.32 117.067 327.44C116.027 326.56 115.227 325.54 114.667 324.38C114.147 323.18 113.887 321.74 113.887 320.06C113.887 317.98 114.287 316.14 115.087 314.54C115.887 312.9 116.967 311.54 118.327 310.46C119.727 309.34 121.367 308.5 123.247 307.94C125.127 307.38 127.167 307.1 129.367 307.1C132.247 307.1 134.907 307.56 137.347 308.48C139.787 309.4 141.927 310.54 143.767 311.9L140.707 317.42ZM181.407 344.06V350H152.187V307.4H180.867V313.34H158.907V325.46H177.927V331.04H158.907V344.06H181.407ZM206.099 344.24C208.339 344.24 210.199 343.8 211.679 342.92C213.159 342.04 214.339 340.9 215.219 339.5C216.139 338.06 216.779 336.44 217.139 334.64C217.539 332.8 217.739 330.92 217.739 329V307.4H224.519V329C224.519 331.92 224.179 334.68 223.499 337.28C222.819 339.84 221.739 342.1 220.259 344.06C218.779 345.98 216.859 347.5 214.499 348.62C212.179 349.74 209.379 350.3 206.099 350.3C202.699 350.3 199.819 349.72 197.459 348.56C195.139 347.36 193.259 345.78 191.819 343.82C190.379 341.82 189.339 339.54 188.699 336.98C188.059 334.42 187.739 331.76 187.739 329V307.4H194.459V329C194.459 330.96 194.639 332.86 194.999 334.7C195.399 336.5 196.039 338.12 196.919 339.56C197.839 340.96 199.039 342.1 200.519 342.98C202.039 343.82 203.899 344.24 206.099 344.24ZM233.456 350V307.4H240.176V344.06H263.036V350H233.456ZM306.879 317.42C306.479 316.98 305.899 316.52 305.139 316.04C304.379 315.52 303.479 315.04 302.439 314.6C301.439 314.16 300.319 313.8 299.079 313.52C297.879 313.24 296.639 313.1 295.359 313.1C292.519 313.1 290.419 313.62 289.059 314.66C287.739 315.7 287.079 317.14 287.079 318.98C287.079 320.02 287.279 320.88 287.679 321.56C288.119 322.2 288.779 322.78 289.659 323.3C290.539 323.78 291.639 324.22 292.959 324.62C294.279 324.98 295.819 325.38 297.579 325.82C299.739 326.34 301.679 326.92 303.399 327.56C305.159 328.2 306.639 328.98 307.839 329.9C309.039 330.82 309.959 331.96 310.599 333.32C311.279 334.64 311.619 336.26 311.619 338.18C311.619 340.34 311.199 342.2 310.359 343.76C309.559 345.32 308.439 346.6 306.999 347.6C305.599 348.56 303.959 349.28 302.079 349.76C300.199 350.2 298.179 350.42 296.019 350.42C292.779 350.42 289.639 349.94 286.599 348.98C283.599 347.98 280.879 346.54 278.439 344.66L281.499 338.9C282.019 339.42 282.759 340 283.719 340.64C284.719 341.28 285.859 341.88 287.139 342.44C288.459 342.96 289.879 343.42 291.399 343.82C292.919 344.18 294.499 344.36 296.139 344.36C298.779 344.36 300.819 343.9 302.259 342.98C303.699 342.06 304.419 340.7 304.419 338.9C304.419 337.82 304.139 336.92 303.579 336.2C303.059 335.48 302.299 334.86 301.299 334.34C300.299 333.78 299.079 333.28 297.639 332.84C296.199 332.4 294.559 331.94 292.719 331.46C290.599 330.9 288.739 330.32 287.139 329.72C285.579 329.08 284.279 328.32 283.239 327.44C282.199 326.56 281.399 325.54 280.839 324.38C280.319 323.18 280.059 321.74 280.059 320.06C280.059 317.98 280.459 316.14 281.259 314.54C282.059 312.9 283.139 311.54 284.499 310.46C285.899 309.34 287.539 308.5 289.419 307.94C291.299 307.38 293.339 307.1 295.539 307.1C298.419 307.1 301.079 307.56 303.519 308.48C305.959 309.4 308.099 310.54 309.939 311.9L306.879 317.42ZM347.579 344.06V350H318.359V307.4H347.039V313.34H325.079V325.46H344.099V331.04H325.079V344.06H347.579ZM371.332 350.3C368.292 350.3 365.512 349.7 362.992 348.5C360.512 347.26 358.372 345.64 356.572 343.64C354.772 341.6 353.372 339.28 352.372 336.68C351.412 334.08 350.932 331.42 350.932 328.7C350.932 325.86 351.452 323.14 352.492 320.54C353.532 317.94 354.952 315.64 356.752 313.64C358.592 311.64 360.752 310.06 363.232 308.9C365.752 307.7 368.492 307.1 371.452 307.1C374.492 307.1 377.252 307.74 379.732 309.02C382.252 310.26 384.392 311.9 386.152 313.94C387.952 315.98 389.332 318.3 390.292 320.9C391.292 323.46 391.792 326.08 391.792 328.76C391.792 331.6 391.272 334.32 390.232 336.92C389.232 339.52 387.812 341.82 385.972 343.82C384.132 345.78 381.952 347.36 379.432 348.56C376.952 349.72 374.252 350.3 371.332 350.3ZM357.772 328.7C357.772 330.7 358.092 332.64 358.732 334.52C359.372 336.4 360.272 338.06 361.432 339.5C362.632 340.94 364.072 342.1 365.752 342.98C367.432 343.82 369.312 344.24 371.392 344.24C373.552 344.24 375.452 343.8 377.092 342.92C378.772 342 380.192 340.8 381.352 339.32C382.512 337.84 383.392 336.18 383.992 334.34C384.592 332.5 384.892 330.62 384.892 328.7C384.892 326.66 384.572 324.72 383.932 322.88C383.292 321 382.372 319.36 381.172 317.96C380.012 316.52 378.592 315.38 376.912 314.54C375.272 313.66 373.432 313.22 371.392 313.22C369.232 313.22 367.312 313.68 365.632 314.6C363.952 315.48 362.532 316.64 361.372 318.08C360.212 319.52 359.312 321.18 358.672 323.06C358.072 324.9 357.772 326.78 357.772 328.7Z" fill="white"/>
</g>
<defs>
<clipPath id="clip0">
<rect width="410" height="410" fill="white"/>
</clipPath>
</defs>
</svg>
